<svg xmlns="http://www.w3.org/2000/svg" xmlns:xlink="http://www.w3.org/1999/xlink" id="body_1" preserveAspectRatio="xMinYMin meet" viewBox="0 0 793 1121"><defs><clipPath id="1"><path id="" clip-rule="evenodd" transform="matrix(1 0 0 1 0 0)" d="M0 841L0 -0.9199829L0 -0.9199829L595.32 -0.9199829L595.32 -0.9199829L595.32 841L595.32 841L0 841z" /></clipPath><clipPath id="2"><path id="" clip-rule="evenodd" transform="matrix(1 0 0 1 0 0)" d="M-4E-09 840.9996L595.32 840.9996L595.32 840.9996L595.32 -0.9203491L595.32 -0.9203491L-4E-09 -0.9203491z" /></clipPath><clipPath id="3"><path id="" clip-rule="evenodd" transform="matrix(1 0 0 1 0 0)" d="M226.61 385.41L425.59 385.41L425.59 385.41L425.59 327.21L425.59 327.21L226.61 327.21z" /></clipPath><clipPath id="4"><path id="" clip-rule="evenodd" transform="matrix(1 0 0 1 0 0)" d="M226.61 385.41L425.59 385.41L425.59 385.41L425.59 327.21L425.59 327.21L226.61 327.21z" /></clipPath><clipPath id="5"><path id="" clip-rule="evenodd" transform="matrix(1 0 0 1 0 0)" d="M226.61 385.41L425.59 385.41L425.59 385.41L425.59 327.21L425.59 327.21L226.61 327.21z" /></clipPath><clipPath id="6"><path id="" clip-rule="evenodd" transform="matrix(1 0 0 1 0 0)" d="M303.41 630.98L551.38 630.98L551.38 630.98L551.38 599.996L551.38 599.996L303.41 599.996z" /></clipPath><clipPath id="7"><path id="" clip-rule="evenodd" transform="matrix(1 0 0 1 0 0)" d="M303.41 630.98L551.38 630.98L551.38 630.98L551.38 599.996L551.38 599.996L303.41 599.996z" /></clipPath><clipPath id="8"><path id="" clip-rule="evenodd" transform="matrix(1 0 0 1 0 0)" d="M303.41 630.98L551.38 630.98L551.38 630.98L551.38 599.996L551.38 599.996L303.41 599.996z" /></clipPath><clipPath id="9"><path id="" clip-rule="evenodd" transform="matrix(1 0 0 1 0 0)" d="M307.61 585.35L478.18 585.35L478.18 585.35L478.18 560.99L478.18 560.99L307.61 560.99z" /></clipPath><clipPath id="10"><path id="" clip-rule="evenodd" transform="matrix(1 0 0 1 0 0)" d="M307.61 585.35L478.18 585.35L478.18 585.35L478.18 560.99L478.18 560.99L307.61 560.99z" /></clipPath><clipPath id="11"><path id="" clip-rule="evenodd" transform="matrix(1 0 0 1 0 0)" d="M307.61 585.35L478.18 585.35L478.18 585.35L478.18 560.99L478.18 560.99L307.61 560.99z" /></clipPath></defs><g transform="matrix(1.333333 0 0 1.333333 0 0)"><g clip-path="url(#1)"><g clip-path="url(#2)"><g transform="matrix(0.3738694 0 0 0.3740444 0.050079 -0.4740601)"><g transform="matrix(1 0 0 1 0 0)"><image x="0" y="0" xlink:href="img_01.png" width="1592" height="2250" /></g></g></g><g clip-path="url(#3)"><g clip-path="url(#4)"></g><g clip-path="url(#5)"></g></g><g clip-path="url(#6)"><g clip-path="url(#7)"></g><g clip-path="url(#8)"></g></g><g clip-path="url(#9)"><g clip-path="url(#10)"></g><g clip-path="url(#11)"></g></g></g></g></svg>