<svg xmlns="http://www.w3.org/2000/svg" xmlns:xlink="http://www.w3.org/1999/xlink" id="body_4" preserveAspectRatio="xMinYMin meet" viewBox="0 0 793 1121"><defs><clipPath id="1"><path id="" clip-rule="evenodd" transform="matrix(1 0 0 1 0 0)" d="M0 841L0 -0.9199829L0 -0.9199829L595.32 -0.9199829L595.32 -0.9199829L595.32 841L595.32 841L0 841z" /></clipPath><clipPath id="2"><path id="" clip-rule="evenodd" transform="matrix(1 0 0 1 0 0)" d="M8.871E-06 841L595.32 841L595.32 841L595.32 -0.9199829L595.32 -0.9199829L8.871E-06 -0.9199829z" /></clipPath><clipPath id="3"><path id="" clip-rule="evenodd" transform="matrix(1 0 0 1 0 0)" d="M8.871E-06 841L595.32 841L595.32 841L595.32 -0.9199829L595.32 -0.9199829L8.871E-06 -0.9199829z" /></clipPath><clipPath id="4"><path id="" clip-rule="evenodd" transform="matrix(1 0 0 1 0 0)" d="M8.871E-06 841L595.32 841L595.32 841L595.32 -0.9199829L595.32 -0.9199829L8.871E-06 -0.9199829z" /></clipPath><clipPath id="5"><path id="" clip-rule="evenodd" transform="matrix(1 0 0 1 0 0)" d="M8.871E-06 841L595.32 841L595.32 841L595.32 -0.9199829L595.32 -0.9199829L8.871E-06 -0.9199829z" /></clipPath><clipPath id="6"><path id="" clip-rule="evenodd" transform="matrix(1 0 0 1 0 0)" d="M-1.907E-06 -0.9199829L595.32 -0.9199829L595.32 -0.9199829L595.32 840.9999L595.32 840.9999L-1.907E-06 840.9999" /></clipPath><clipPath id="7"><path id="" clip-rule="evenodd" transform="matrix(1 0 0 1 0 0)" d="M0 840.9998L595.32 840.9998L595.32 840.9998L595.32 -0.920166L595.32 -0.920166L0 -0.920166z" /></clipPath><clipPath id="8"><path id="" clip-rule="evenodd" transform="matrix(1 0 0 1 0 0)" d="M-2.38E-07 840.9996L595.32 840.9996L595.32 840.9996L595.32 -0.9203491L595.32 -0.9203491L-2.38E-07 -0.9203491z" /></clipPath><clipPath id="9"><path id="" clip-rule="evenodd" transform="matrix(1 0 0 1 0 0)" d="M-6.1035E-05 -0.9199829L595.32 -0.9199829L595.32 -0.9199829L595.32 841L595.32 841L-6.1035E-05 840.9999" /></clipPath><clipPath id="10"><path id="" clip-rule="evenodd" transform="matrix(1 0 0 1 0 0)" d="M6.1035E-05 -0.9199829L595.32 -0.9199829L595.32 -0.9199829L595.32 840.9997L595.32 840.9997L0.00012207 840.9997" /></clipPath><clipPath id="11"><path id="" clip-rule="evenodd" transform="matrix(1 0 0 1 0 0)" d="M-1.5259E-05 -0.9199829L595.32 -0.9199829L595.32 -0.9199829L595.32 841L595.32 841L-3.0518E-05 840.9999" /></clipPath><clipPath id="12"><path id="" clip-rule="evenodd" transform="matrix(1 0 0 1 0 0)" d="M1.5259E-05 -0.9199829L595.32 -0.9199829L595.32 -0.9199829L595.32 840.9998L595.32 840.9998L3.0518E-05 840.9998" /></clipPath><clipPath id="13"><path id="" clip-rule="evenodd" transform="matrix(1 0 0 1 0 0)" d="M-7.629E-06 -0.9199829L595.32 -0.9199829L595.32 -0.9199829L595.32 841.0001L595.32 841.0001L-7.629E-06 841.0001" /></clipPath><clipPath id="14"><path id="" clip-rule="evenodd" transform="matrix(1 0 0 1 0 0)" d="M0 -0.9199829L595.32 -0.9199829L595.32 -0.9199829L595.32 840.9997L595.32 840.9997L6.1035E-05 840.9998" /></clipPath><clipPath id="15"><path id="" clip-rule="evenodd" transform="matrix(1 0 0 1 0 0)" d="M-1.5259E-05 -0.9199829L595.32 -0.9199829L595.32 -0.9199829L595.32 841.0001L595.32 841.0001L-1.5259E-05 841.0001" /></clipPath><clipPath id="16"><path id="" clip-rule="evenodd" transform="matrix(1 0 0 1 0 0)" d="M3.0518E-05 840.9998L595.3201 840.9998L595.3201 840.9998L595.3201 -0.920166L595.3201 -0.920166L3.0518E-05 -0.920166z" /></clipPath><clipPath id="17"><path id="" clip-rule="evenodd" transform="matrix(1 0 0 1 0 0)" d="M-1.5259E-05 -0.9199829L595.32 -0.9199829L595.32 -0.9199829L595.32 841L595.32 841L-1.5259E-05 841" /></clipPath><clipPath id="18"><path id="" clip-rule="evenodd" transform="matrix(1 0 0 1 0 0)" d="M-5.722E-06 -0.9199829L595.32 -0.9199829L595.32 -0.9199829L595.32 841.0001L595.32 841.0001L-5.722E-06 841.0001" /></clipPath><clipPath id="19"><path id="" clip-rule="evenodd" transform="matrix(1 0 0 1 0 0)" d="M-3.0518E-05 840.9996L595.3199 840.9996L595.3199 840.9996L595.3199 -0.9204102L595.3199 -0.9204102L-3.0518E-05 -0.9204102z" /></clipPath><clipPath id="20"><path id="" clip-rule="evenodd" transform="matrix(1 0 0 1 0 0)" d="M486.22 190.02L595.32 190.02L595.32 190.02L595.32 162.66L595.32 162.66L486.22 162.66z" /></clipPath><clipPath id="21"><path id="" clip-rule="evenodd" transform="matrix(1 0 0 1 0 0)" d="M486.22 190.02L605.76 190.02L605.76 190.02L605.76 162.66L605.76 162.66L486.22 162.66z" /></clipPath><clipPath id="22"><path id="" clip-rule="evenodd" transform="matrix(1 0 0 1 0 0)" d="M486.22 190.02L605.76 190.02L605.76 190.02L605.76 162.66L605.76 162.66L486.22 162.66z" /></clipPath><clipPath id="23"><path id="" clip-rule="evenodd" transform="matrix(1 0 0 1 0 0)" d="M486.22 190.02L605.76 190.02L605.76 190.02L605.76 162.66L605.76 162.66L486.22 162.66z" /></clipPath></defs><g transform="matrix(1.333333 0 0 1.333333 0 0)"><g clip-path="url(#1)"><g clip-path="url(#2)"></g><g clip-path="url(#3)"></g><g clip-path="url(#4)"></g><g clip-path="url(#5)"></g><g clip-path="url(#6)"><g transform="matrix(0 -0.3269231 0.3271824 -1.409584E-07 23.86 323.3101)"><g transform="matrix(1 0 0 1 0 0)"><image x="0" y="0" xlink:href="img_08.png" width="286" height="433" /></g></g></g><g clip-path="url(#7)"><g transform="matrix(0.3270492 0 0 0.3272286 240.95 205.48)"><g transform="matrix(1 0 0 1 0 0)"><image x="0" y="0" xlink:href="img_09.png" width="305" height="433" /></g></g></g><g clip-path="url(#8)"><g transform="matrix(0.5736364 0 0 0.5737642 1.5 47.38)"><g transform="matrix(1 0 0 1 0 0)"><image x="0" y="0" xlink:href="img_10.png" width="1034" height="263" /></g></g></g><g clip-path="url(#9)"><g transform="matrix(0 -0.3270548 0.3272286 0 406.81 327.33)"><g transform="matrix(1 0 0 1 0 0)"><image x="0" y="0" xlink:href="img_11.png" width="292" height="433" /></g></g></g><g clip-path="url(#10)"><g transform="matrix(0 0.3275478 -0.3271824 0 552.74 364.51)"><g transform="matrix(1 0 0 1 0 0)"><image x="0" y="0" xlink:href="img_12.png" width="314" height="433" /></g></g></g><g clip-path="url(#11)"><g transform="matrix(0 -0.3268371 0.3272286 -1.409584E-07 233.65 619.0201)"><g transform="matrix(1 0 0 1 0 0)"><image x="0" y="0" xlink:href="img_13.png" width="313" height="433" /></g></g></g><g clip-path="url(#12)"><g transform="matrix(0 0.3268371 -0.3272286 0 181.745 513.72)"><g transform="matrix(1 0 0 1 0 0)"><image x="0" y="0" xlink:href="img_14.png" width="313" height="433" /></g></g></g><g clip-path="url(#13)"><g transform="matrix(-4.666361E-08 -0.3267278 0.3272517 -1.409584E-07 33.55 749.8251)"><g transform="matrix(1 0 0 1 0 0)"><image x="0" y="0" xlink:href="img_15.png" width="327" height="433" /></g></g></g><g clip-path="url(#14)"><g transform="matrix(0 0.3276873 -0.3272286 0 546.29 518.37)"><g transform="matrix(1 0 0 1 0 0)"><image x="0" y="0" xlink:href="img_16.png" width="307" height="433" /></g></g></g><g clip-path="url(#15)"><g transform="matrix(0 -0.3263793 0.3272286 0 227.86 746.825)"><g transform="matrix(1 0 0 1 0 0)"><image x="0" y="0" xlink:href="img_17.png" width="290" height="433" /></g></g></g><g clip-path="url(#16)"><g transform="matrix(0.3272286 0 0 0.3268371 404.55 647.279)"><g transform="matrix(1 0 0 1 0 0)"><image x="0" y="0" xlink:href="img_18.png" width="433" height="313" /></g></g></g><g clip-path="url(#17)"><g transform="matrix(-9.908442E-08 -0.3266234 0.3272286 -7.048037E-08 219.45 469.72)"><g transform="matrix(1 0 0 1 0 0)"><image x="0" y="0" xlink:href="img_19.png" width="308" height="433" /></g></g></g><g clip-path="url(#18)"><g transform="matrix(0 -0.3264901 0.3271824 -7.048037E-08 27.25999 469.11)"><g transform="matrix(1 0 0 1 0 0)"><image x="0" y="0" xlink:href="img_20.png" width="302" height="433" /></g></g></g><g clip-path="url(#19)"><g transform="matrix(0.3841667 0 0 0.3841667 476.55 52.08002)"><g transform="matrix(1 0 0 1 0 0)"><image x="0" y="0" xlink:href="img_21.png" width="300" height="300" /></g></g></g><g clip-path="url(#20)"><g clip-path="url(#21)"></g><g clip-path="url(#22)"></g><g clip-path="url(#23)"></g></g></g></g></svg>